<svg width="764" height="344" viewBox="0 0 764 344" fill="none" xmlns="http://www.w3.org/2000/svg">
<path d="M55.1407 174.294C55.142 174.291 55.6883 172.706 56.5337 170.265C57.8018 166.606 59.7397 161.028 61.5031 156.026C63.2648 151.027 64.8607 146.581 65.4177 145.245L64.8842 145.023L64.3289 145.185C64.3293 145.186 64.4907 145.736 64.7752 146.719C65.7716 150.157 68.271 158.864 70.5866 167.575C71.7445 171.93 72.857 176.287 73.7113 179.981C74.5662 183.672 75.163 186.72 75.2896 188.385C75.3491 189.162 75.3763 189.922 75.3763 190.66C75.3763 193.982 74.8295 196.862 74.2837 198.905C74.0109 199.928 73.7385 200.741 73.5351 201.295C73.4335 201.573 73.3489 201.786 73.2911 201.927L73.2242 202.086L73.2031 202.135L74.258 202.609C74.2766 202.564 76.5302 197.557 76.533 190.66C76.533 189.893 76.505 189.104 76.4426 188.295C76.2817 186.233 75.5154 182.539 74.455 178.09C71.2742 164.768 65.4403 144.864 65.439 144.86L64.979 143.29L64.3501 144.799C63.957 145.743 63.1262 148.013 62.0883 150.916C58.9775 159.616 54.0472 173.917 54.0469 173.918L55.1407 174.295" fill="#F9F6F4"/>
<path d="M33.9728 212.221C33.9728 212.22 33.896 212.077 33.7569 211.801C32.7768 209.873 28.8456 201.551 28.8559 194.135C28.8537 190.486 29.7465 184.982 31.0947 178.826C33.1157 169.585 36.1528 158.848 38.6843 150.427C39.7314 146.943 40.8072 143.469 41.9116 140.004C42.3233 138.714 42.6554 137.688 42.8845 136.984C43.114 136.281 43.2396 135.901 43.24 135.9L42.6911 135.718L42.1607 135.948C42.1611 135.95 42.3825 136.461 42.7751 137.42C45.5258 144.126 56.5348 172.58 56.5267 196.53H57.6833C57.6729 168.784 43.2296 135.524 43.2215 135.488L42.6188 134.098L42.1421 135.536C42.1403 135.54 38.5352 146.414 34.928 159.164C33.1243 165.539 31.3197 172.383 29.9646 178.578C28.6101 184.777 27.7011 190.311 27.6992 194.135C27.7015 198.597 29.0195 203.235 30.328 206.775C31.6377 210.315 32.9449 212.751 32.9534 212.767L33.9728 212.221ZM528.199 144.166C528.2 144.163 528.476 143.28 528.967 141.716C530.685 136.245 535.03 122.471 539.346 109.341C541.503 102.776 543.653 96.3702 545.462 91.2462C546.367 88.6854 547.187 86.4438 547.877 84.6649C548.567 82.8905 549.136 81.5673 549.508 80.8907L549.002 80.6119L548.484 80.8687C548.485 80.8722 549.171 82.2579 550.265 84.4729C553.547 91.119 560.497 105.201 563.569 111.51L564.608 111.003C560.509 102.585 549.521 80.3563 549.52 80.3551L549.028 79.3616L548.495 80.3332C548.007 81.225 547.333 82.842 546.493 85.0431C540.639 100.406 527.098 143.814 527.096 143.821L528.2 144.166" fill="#F9F6F4"/>
<path d="M568.848 163.952C568.847 163.952 568.722 163.734 568.496 163.314C566.911 160.384 560.558 147.807 560.57 136.529C560.567 130.981 562.01 122.666 564.183 113.364C567.441 99.4042 572.336 83.1925 576.415 70.4762C578.103 65.2154 579.837 59.9694 581.616 54.7387C582.279 52.7909 582.815 51.241 583.183 50.1792C583.554 49.1162 583.756 48.5425 583.757 48.5414L583.211 48.3482L582.678 48.5714C582.679 48.5726 582.956 49.2342 583.451 50.466C586.924 59.0843 601.072 95.4669 604.956 124.609L606.103 124.456C601.622 90.905 583.751 48.1493 583.746 48.125L583.167 46.7405L582.666 48.1551C582.664 48.1608 576.858 64.5703 571.048 83.8101C568.144 93.43 565.238 103.757 563.057 113.1C560.876 122.447 559.415 130.795 559.413 136.529C559.415 143.212 561.529 150.192 563.63 155.518C565.734 160.843 567.835 164.511 567.844 164.527L568.848 163.952Z" fill="#F9F6F4"/>
<path d="M672.651 32.6177L672.143 32.8941L726.551 132.875V254.789H619.962L618.752 132.873L673.16 32.8941L672.651 32.6177L672.143 32.3412L617.593 132.584L618.816 255.946H727.708V132.58L672.651 31.4078L672.143 32.3412L672.651 32.6177Z" fill="#C7C7C7"/>
<path d="M664.1 16.9034L663.592 17.1798L671.993 32.6177L617.829 132.15H602.043L664.608 17.1798L664.1 16.9034L663.592 16.6269L600.097 133.307H618.516L673.311 32.6177L664.1 15.6935L663.592 16.6269L664.1 16.9034ZM868 61.607L843.36 16.3251H815.811V17.4817H842.672L866.983 62.1598L868 61.607Z" fill="#C7C7C7"/>
<path d="M763.171 16.3251H663.126L726.786 133.307H867.492V132.15H727.473L665.073 17.4817H763.171V16.3251Z" fill="#C7C7C7"/>
<path d="M867.492 132.15H726.551V255.946H867.492V254.789H727.708V133.307H867.492V132.15ZM649.906 167.296V167.875H693.34V254.789H650.485V167.296H649.906H649.328V255.946H694.497V166.718H649.328V167.296H649.906ZM784.692 48.3482V48.9265H816.389V6.70975H784.113V48.9265H784.692V48.3482H785.27V7.86641H815.232V47.7699H784.692V48.3482Z" fill="#C7C7C7"/>
<path d="M784.692 7.28806V6.70973H762.593V28.2258L785.27 49.6922V6.70973H784.692V7.28806H784.114V47.0042L763.749 27.7273V7.86639H784.692V7.28806Z" fill="#C7C7C7"/>
<path d="M784.691 0.578308V-1.52588e-05H759.126V7.86641H785.27V-1.52588e-05H784.691V0.578308H784.113V6.70975H760.283V1.15665H784.691V0.578308ZM867.492 170.784H828.902V199.045H867.492V197.889H830.059V171.94H867.492V170.784ZM765.294 198.467V199.045H809.341V170.784H764.716V199.045H765.294V198.467H765.873V171.94H808.184V197.889H765.294V198.467ZM0 255.946H670.787V254.789H0V255.946Z" fill="#C7C7C7"/>
<path d="M279.451 167.072V166.494H82.0605V255.946H280.03V166.494H279.451V167.072H278.873V254.789H83.2172V167.649L279.451 167.65V167.072Z" fill="#C7C7C7"/>
<path d="M300.342 59.0785H337.529L279.109 166.494H83.2599L141.681 59.0785H167.72V57.9218H140.992L81.3145 167.65H279.796L339.474 57.9218H300.342V59.0785Z" fill="#C7C7C7"/>
<path d="M212.179 59.0785H255.883V57.9218H212.179V59.0785ZM338.501 58.5002L337.994 58.2237L278.479 167.65H398.524L338.501 57.2892L337.994 58.2237L338.501 58.5002L337.994 58.7766L396.578 166.494H280.424L339.009 58.7766L338.501 58.5002ZM189.95 36.3884H189.371V80.0336H168.298V36.9667H189.95V36.3884V35.8101H167.142V81.1903H190.528V35.8101H189.95V36.3884Z" fill="#C7C7C7"/>
<path d="M212.179 36.3884H211.601V72.4795L190.528 79.7988V36.9667H212.179V36.3884V35.8101H189.371V81.4251L212.758 73.3019V35.8101H212.179V36.3884ZM278.112 36.3884H277.534V80.0336H256.461V36.9667H278.112V36.3884V35.8101H255.304V81.1903H278.69V35.8101H278.112V36.3884Z" fill="#C7C7C7"/>
<path d="M300.342 36.3884H299.764V72.4795L278.691 79.7988V36.9667H300.342V36.3884V35.8101H277.534V81.4251L300.921 73.3019V35.8101H300.342V36.3884ZM279.452 167.072V167.649H396.973V254.789H280.03V167.072H279.452H278.874V255.946H398.129V166.492H278.874V167.072H279.452Z" fill="#C7C7C7"/>
<path d="M728.802 308.704H166.483C162.212 308.704 158.75 305.24 158.75 300.97V249.219H728.802V308.704Z" fill="#232857"/>
<path d="M523.973 343.514H498.162V266.953H523.973V343.514Z" fill="#3F4D76"/>
<path d="M498.162 343.514C514.472 343.514 527.693 330.293 527.693 313.983V296.483C527.693 280.174 514.472 266.953 498.162 266.953C481.852 266.953 468.632 280.174 468.632 296.483V313.983C468.632 330.293 481.852 343.514 498.162 343.514Z" fill="#3F4D76"/>
<path d="M523.974 343.514C540.284 343.514 553.506 330.293 553.506 313.983V296.483C553.506 280.174 540.284 266.953 523.974 266.953C507.665 266.953 494.443 280.174 494.443 296.483V313.983C494.443 330.293 507.665 343.514 523.974 343.514Z" fill="#232857"/>
<path d="M252.824 343.514H227.014V266.953H252.824V343.514Z" fill="#3F4D76"/>
<path d="M227.013 343.514C243.322 343.514 256.544 330.293 256.544 313.983V296.483C256.544 280.174 243.322 266.953 227.013 266.953C210.703 266.953 197.481 280.174 197.481 296.483V313.983C197.481 330.293 210.703 343.514 227.013 343.514Z" fill="#3F4D76"/>
<path d="M252.824 343.514C269.133 343.514 282.354 330.293 282.354 313.983V296.483C282.354 280.174 269.133 266.953 252.824 266.953C236.514 266.953 223.292 280.174 223.292 296.483V313.983C223.292 330.293 236.514 343.514 252.824 343.514Z" fill="#232857"/>
<path d="M334.16 312.975H256.694C254.557 312.975 252.824 311.242 252.824 309.103C252.824 306.967 254.557 305.233 256.694 305.233H334.16C336.299 305.233 338.032 306.967 338.032 309.103C338.032 311.242 336.299 312.975 334.16 312.975ZM605.31 312.975H527.843C525.706 312.975 523.973 311.242 523.973 309.103C523.973 306.967 525.706 305.233 527.843 305.233H605.31C607.448 305.233 609.181 306.967 609.181 309.103C609.181 311.242 607.448 312.975 605.31 312.975Z" fill="#3F4D76"/>
<path d="M653.948 343.514H628.136V266.953H653.948V343.514Z" fill="#232857"/>
<path d="M628.136 343.514C644.446 343.514 657.667 330.293 657.667 313.983V296.483C657.667 280.174 644.446 266.953 628.136 266.953C611.827 266.953 598.605 280.174 598.605 296.483V313.983C598.605 330.293 611.827 343.514 628.136 343.514Z" fill="#232857"/>
<path d="M653.948 343.514C670.257 343.514 683.478 330.293 683.478 313.983V296.483C683.478 280.174 670.257 266.953 653.948 266.953C637.638 266.953 624.416 280.174 624.416 296.483V313.983C624.416 330.293 637.638 343.514 653.948 343.514Z" fill="#3F4D76"/>
<path d="M653.948 325.75C662.687 325.75 669.774 318.664 669.774 309.922V300.544C669.774 291.802 662.687 284.717 653.948 284.717C645.206 284.717 638.12 291.802 638.12 300.544V309.922C638.12 318.664 645.206 325.75 653.948 325.75Z" fill="#9AA8B3"/>
<path d="M653.947 313.373C657.415 313.373 660.226 310.562 660.226 307.094V303.372C660.226 299.905 657.415 297.095 653.947 297.095C650.48 297.095 647.668 299.905 647.668 303.372V307.094C647.668 310.562 650.48 313.373 653.947 313.373Z" fill="#C6D6D9"/>
<path d="M383.954 343.514H358.144V266.953H383.954V343.514Z" fill="#232857"/>
<path d="M358.144 343.514C374.453 343.514 387.674 330.293 387.674 313.983V296.483C387.674 280.174 374.453 266.953 358.144 266.953C341.834 266.953 328.613 280.174 328.613 296.483V313.983C328.613 330.293 341.834 343.514 358.144 343.514Z" fill="#232857"/>
<path d="M383.953 343.514C400.262 343.514 413.484 330.293 413.484 313.983V296.483C413.484 280.174 400.262 266.953 383.953 266.953C367.643 266.953 354.423 280.174 354.423 296.483V313.983C354.423 330.293 367.643 343.514 383.953 343.514Z" fill="#3F4D76"/>
<path d="M383.953 325.75C392.694 325.75 399.78 318.664 399.78 309.922V300.544C399.78 291.802 392.694 284.717 383.953 284.717C375.213 284.717 368.127 291.802 368.127 300.544V309.922C368.127 318.664 375.213 325.75 383.953 325.75Z" fill="#9AA8B3"/>
<path d="M383.954 313.373C387.422 313.373 390.232 310.562 390.232 307.094V303.372C390.232 299.905 387.422 297.095 383.954 297.095C380.486 297.095 377.676 299.905 377.676 303.372V307.094C377.676 310.562 380.486 313.373 383.954 313.373Z" fill="#C6D6D9"/>
<path d="M735.271 256.388V300.518H699.311C695.902 300.518 692.908 298.255 691.975 294.977L684.323 268.064C682.94 263.196 678.492 259.838 673.432 259.838H631.433C626.371 259.838 621.925 263.196 620.54 268.064L612.889 294.977C611.957 298.255 608.961 300.518 605.553 300.518H574.659V147.642H633.464C639.5 147.642 645.034 151.014 647.799 156.381L676.696 212.435C677.497 213.99 678.742 215.272 680.273 216.118L726.595 241.689C731.948 244.643 735.271 250.274 735.271 256.388Z" fill="#7EB54B"/>
<path d="M574.662 242.123H726.596V241.255H574.662V242.123Z" fill="#96C369"/>
<path d="M278.481 102.842V300.515H333.389C336.798 300.515 339.793 298.253 340.725 294.975L348.377 268.068C349.762 263.199 354.208 259.842 359.269 259.842H401.264C406.324 259.842 410.771 263.199 412.155 268.068L419.807 294.975C420.74 298.253 423.734 300.515 427.143 300.515H574.662V102.842H278.481Z" fill="#F57D5F"/>
<path d="M511.067 216.118H365.027V156.788H511.067V216.118Z" fill="white"/>
<path d="M416.685 273.65H574.662V272.782H416.685V273.65ZM278.048 273.216C278.048 273.332 278.095 273.433 278.142 273.491C278.236 273.608 278.303 273.629 278.357 273.655C278.458 273.698 278.539 273.713 278.646 273.733C279.026 273.8 279.694 273.846 280.656 273.888C283.528 274.011 288.932 274.057 295.429 274.057C314.802 274.057 343.852 273.65 343.853 273.65L343.842 272.782C343.837 272.782 342.026 272.808 339 272.846C329.923 272.96 309.95 273.189 295.429 273.189C290.588 273.189 286.354 273.164 283.333 273.1C281.823 273.068 280.616 273.027 279.796 272.975C279.386 272.95 279.072 272.921 278.876 272.892L278.696 272.857L278.684 272.894L278.699 272.859L278.696 272.857L278.684 272.894L278.699 272.859L278.58 273.138L278.779 272.911L278.699 272.859L278.58 273.138L278.779 272.911L278.513 273.216H278.915C278.914 273.051 278.822 272.945 278.779 272.911L278.513 273.216H278.915H278.048Z" fill="#F89D86"/>
<path d="M340.725 294.975L343.848 283.995H278.482V300.515H333.389C336.798 300.515 339.794 298.254 340.725 294.975ZM419.808 294.975C420.74 298.254 423.735 300.515 427.143 300.515H574.662V283.995H416.685L419.808 294.975ZM135.835 300.515H278.482V102.842H135.835V300.515Z" fill="#E74760"/>
<path d="M147.401 288.949H266.915V114.408H147.401V288.949Z" fill="#232857"/>
<path d="M427.15 300.515L416.279 262.284C414.894 257.416 410.448 254.058 405.387 254.058H355.13C350.069 254.058 345.623 257.416 344.239 262.284L333.366 300.515H333.389C336.798 300.515 339.794 298.253 340.725 294.975L348.377 268.068C349.762 263.199 354.208 259.842 359.27 259.842H401.264C406.325 259.842 410.771 263.199 412.155 268.068L419.808 294.975C420.74 298.253 423.735 300.515 427.143 300.515H427.15ZM699.311 300.518C695.903 300.518 692.908 298.255 691.976 294.977L684.323 268.064C682.94 263.196 678.493 259.838 673.432 259.838H631.433C626.371 259.838 621.925 263.196 620.541 268.064L612.889 294.977C611.957 298.255 608.961 300.518 605.554 300.518H605.53L616.401 262.281C617.784 257.413 622.232 254.055 627.292 254.055H677.55C682.612 254.055 687.058 257.413 688.442 262.281L699.311 300.518Z" fill="#C7CDD1"/>
<path d="M596.146 156.788H633.525C636.834 156.788 639.865 158.639 641.375 161.582L667.475 212.423C668.283 214 668.705 215.747 668.705 217.518V223.119C668.705 227.368 665.26 230.814 661.011 230.814H595.018C590.768 230.814 587.322 227.368 587.322 223.119V165.612C587.322 160.738 591.273 156.788 596.146 156.788Z" fill="#69CEDF"/>
<path d="M596.146 156.788H633.525C636.834 156.788 639.865 158.639 641.375 161.582L650.306 178.98H587.322V165.612C587.322 160.738 591.273 156.788 596.146 156.788Z" fill="#49AAD1"/>
<path d="M625.407 156.649L594.959 230.674L595.493 230.895L625.941 156.869M646.729 178.841L625.407 230.674L625.941 230.895L647.263 179.061M663.294 209.337L654.517 230.674L655.052 230.895L663.829 209.557" fill="#88D8EB"/>
<path d="M633.525 156.788H596.146C591.273 156.788 587.322 160.738 587.322 165.612V223.119C587.322 227.368 590.768 230.814 595.018 230.814H661.011C665.26 230.814 668.705 227.368 668.705 223.119V217.518C668.705 215.748 668.284 214.001 667.475 212.423L641.375 161.582C639.865 158.639 636.834 156.788 633.525 156.788ZM633.525 162.571C634.671 162.571 635.708 163.204 636.23 164.224L662.33 215.065C662.718 215.825 662.921 216.665 662.921 217.518V223.119C662.921 224.174 662.064 225.031 661.011 225.031H595.018C593.963 225.031 593.106 224.174 593.106 223.119V165.612C593.106 163.936 594.47 162.571 596.146 162.571H633.525Z" fill="#232857"/>
<path d="M687.775 280.203C687.89 280.609 727.683 280.332 740.279 280.233C742.363 280.218 744.056 281.902 744.056 283.986V296.765C744.056 298.837 742.376 300.518 740.305 300.518H699.311C695.902 300.518 692.907 298.255 691.975 294.977L687.775 280.203Z" fill="#C7CDD1"/>
<path d="M688.853 284.419H744.055V283.552H688.853V284.419ZM644.791 157.277L644.405 157.476L671.843 210.702C672.465 211.91 672.791 213.249 672.791 214.608V241.027C672.79 242.59 672.159 244 671.135 245.025C670.11 246.048 668.7 246.68 667.138 246.681H622.606C617.798 246.681 613.575 249.878 612.272 254.506L603.019 287.349C601.82 291.603 597.939 294.544 593.518 294.544H586.342C584.224 294.539 582.51 292.825 582.506 290.706V161.384C582.506 159.027 583.459 156.899 585.003 155.354C586.548 153.811 588.677 152.857 591.033 152.857H636.826C640.019 152.857 642.943 154.639 644.405 157.476L644.791 157.277L645.176 157.078C644.386 155.545 643.188 154.259 641.716 153.362C640.243 152.464 638.551 151.989 636.826 151.989H591.033C585.843 151.989 581.639 156.195 581.639 161.384V290.706C581.639 293.304 583.744 295.41 586.342 295.411H593.518C598.328 295.41 602.55 292.213 603.855 287.584L613.107 254.742C614.305 250.487 618.187 247.549 622.606 247.549H667.138C670.738 247.547 673.658 244.628 673.658 241.027V214.608C673.658 213.111 673.299 211.636 672.614 210.305L645.176 157.078L644.791 157.277Z" fill="#232857"/>
<path d="M595.36 249.533H588.678C587.928 249.533 587.322 248.927 587.322 248.18C587.322 247.431 587.928 246.825 588.678 246.825H595.36C596.109 246.825 596.716 247.431 596.716 248.18C596.716 248.927 596.109 249.533 595.36 249.533Z" fill="#3F4D76"/>
<path d="M735.271 256.388H727.233C724.538 256.388 722.352 258.573 722.352 261.269V280.348H735.271V256.388Z" fill="#FCDB77"/>
<path d="M679.839 216.118V233.191C679.839 234.954 681.267 236.382 683.031 236.382H715.915V235.515H683.031C681.747 235.512 680.709 234.475 680.706 233.191V216.118H679.839Z" fill="#232857"/>
<path d="M389.819 259.842H367.919C366.323 259.842 365.027 258.546 365.027 256.95C365.027 255.353 366.323 254.058 367.919 254.058H389.819C391.416 254.058 392.711 255.353 392.711 256.95C392.711 258.546 391.416 259.842 389.819 259.842ZM661.255 259.842H639.355C637.758 259.842 636.463 258.546 636.463 256.95C636.463 255.353 637.758 254.058 639.355 254.058H661.255C662.852 254.058 664.147 255.353 664.147 256.95C664.147 258.546 662.852 259.842 661.255 259.842Z" fill="white"/>
<path d="M647.414 230.814H653.197V184.548H647.414V230.814Z" fill="#232857"/>
<path d="M731.434 272.621H728.001C726.865 272.621 725.943 271.701 725.943 270.563V260.496C725.943 259.36 726.865 258.437 728.001 258.437H731.434C732.57 258.437 733.493 259.36 733.493 260.496V270.563C733.493 271.701 732.57 272.621 731.434 272.621Z" fill="#F57D5F"/>
<path d="M731.434 278.961H728.001C726.865 278.961 725.943 278.039 725.943 276.902V275.899C725.943 274.762 726.865 273.841 728.001 273.841H731.434C732.57 273.841 733.493 274.762 733.493 275.899V276.902C733.493 278.039 732.57 278.961 731.434 278.961Z" fill="white"/>
<path d="M147.401 288.949H266.914L207.158 343.514H87.6436L147.401 288.949Z" fill="#73789C"/>
<path d="M266.914 288.949H252.103L192.346 343.514H207.158L266.914 288.949Z" fill="#C7CDD1"/>
<path d="M278.481 120.994H574.662V120.127H278.481V120.994Z" fill="#E74760"/>
<path d="M185.627 176.816H236.162L236.586 219.485H185.627V176.816Z" fill="#F9B057"/>
<path d="M236.117 176.816H266.914V219.485H236.715L236.117 176.816Z" fill="#F19737"/>
<path d="M174.63 219.485H241.203L241.773 288.949H172.947L174.63 219.485Z" fill="#FCDB77"/>
<path d="M241.141 219.485H266.914L266.858 288.949H241.641L241.141 219.485Z" fill="#F9B057"/>
<path d="M399.089 323.402H525.781V251.144H399.089V323.402Z" fill="#C7CDD1"/>
<path d="M525.781 343.514H559.992V251.143H525.781V343.514Z" fill="#B3B1AD"/>
<path d="M399.089 263.808H525.781V251.143H399.089V263.808Z" fill="#8A898C"/>
<path d="M525.781 263.808H559.992V251.143H525.781V263.808Z" fill="#817B7A"/>
<path d="M390.895 251.144H568.186V242.95H390.895V251.144Z" fill="#E5E0DD"/>
<path d="M399.089 343.514V242.95H390.895V343.514H399.089ZM568.186 343.514V242.95H559.992V343.514H568.186Z" fill="#E5E0DD"/>
<path d="M357 343.514H390.893V242.95H357V343.514Z" fill="#F9F6F4"/>
<path d="M450.638 259.338H399.089V338.251H450.638V259.338Z" fill="#B3B1AD"/>
<path d="M399.089 284.419H450.638V282.432H399.089V284.419ZM399.089 306.766H450.638V304.78H399.089V306.766ZM399.089 263.808H450.638V259.338H399.089V263.808ZM420.393 271.258H429.333C430.361 271.258 431.195 270.424 431.195 269.394C431.195 268.367 430.361 267.533 429.333 267.533H420.393C419.365 267.533 418.531 268.367 418.531 269.394C418.531 270.424 419.365 271.258 420.393 271.258ZM420.393 293.233H429.333C430.361 293.233 431.195 292.399 431.195 291.37C431.195 290.343 430.361 289.509 429.333 289.509H420.393C419.365 289.509 418.531 290.343 418.531 291.37C418.531 292.399 419.365 293.233 420.393 293.233ZM420.393 315.208H429.333C430.361 315.208 431.195 314.374 431.195 313.345C431.195 312.318 430.361 311.483 429.333 311.483H420.393C419.365 311.483 418.531 312.318 418.531 313.345C418.531 314.374 419.365 315.208 420.393 315.208Z" fill="#E5E0DD"/>
<path d="M399.089 343.514H450.638V338.251H399.089V343.514Z" fill="#232857"/>
<path d="M270.286 272.518H338.328L338.911 343.514H268.566L270.286 272.518Z" fill="#F9B057"/>
<path d="M338.265 272.518H371.481L371.409 343.514H338.91L338.265 272.518Z" fill="#F19737"/>
<path d="M270.15 272.518L257.428 292.199H325.543L338.265 272.518H270.15Z" fill="#FCDB77"/>
<path d="M371.481 272.518L384.204 292.199H350.988L338.265 272.518H371.481Z" fill="#FCDB77"/>
<path d="M212.43 305.564H257.982L258.362 343.514H212.43V305.564Z" fill="#F9B057"/>
<path d="M257.941 305.564H285.702V343.514H258.48L257.941 305.564Z" fill="#F19737"/>
<path d="M302.349 208.863C300.105 212.433 298.521 221.032 298.521 231.079C298.521 241.127 300.105 249.725 302.349 253.295C304.593 249.725 306.175 241.127 306.175 231.079C306.175 221.032 304.593 212.433 302.349 208.863Z" fill="#297577"/>
<path d="M289.408 213.164C288.032 217.149 288.441 225.883 290.717 235.669C292.995 245.455 296.485 253.472 299.48 256.44C300.856 252.455 300.448 243.72 298.171 233.935C295.893 224.149 292.402 216.133 289.408 213.164ZM316.194 213.135C313.118 216.291 309.421 224.8 306.9 235.175C304.378 245.552 303.758 254.807 305.042 259.024C308.119 255.866 311.814 247.36 314.336 236.983C316.857 226.606 317.479 217.351 316.194 213.135Z" fill="#297577"/>
<path d="M297.85 215.554C295.902 219.295 295.019 227.993 295.831 238.009C296.642 248.023 298.914 256.465 301.439 259.843C303.387 256.103 304.269 247.404 303.457 237.39C302.646 227.375 300.375 218.932 297.85 215.554Z" fill="#37AC86"/>
<path d="M307.969 215.554C309.916 219.295 310.799 227.993 309.988 238.009C309.176 248.023 306.904 256.465 304.38 259.843C302.432 256.103 301.549 247.404 302.36 237.39C303.172 227.375 305.444 218.932 307.969 215.554Z" fill="#37AC86"/>
<path d="M315.789 256.64H288.922L288.396 249.966H316.315L315.789 256.64ZM312.278 272.162H292.402L291.165 256.64H313.516L312.278 272.162Z" fill="#B85637"/>
<path d="M291.394 259.521L291.165 256.64L291.395 259.521" fill="#D4694C"/>
<path d="M313.287 259.521H291.394L291.165 256.64H313.516L313.287 259.521Z" fill="#98482E"/>
<path d="M250.47 305.564H248.13V270.8H250.47V305.564ZM229.193 305.564H226.854L237.571 270.8H239.912L229.193 305.564ZM269.406 305.564H271.747L261.028 270.8H258.688L269.406 305.564Z" fill="#3F3635"/>
<path d="M272.377 279.226H226.224L228.978 237.094H269.623L272.377 279.226Z" fill="#F9F6F4"/>
<path d="M233.383 279.226L235.821 243.503H270.041L272.376 279.226H233.383Z" fill="#E5E0DD"/>
<path d="M231.918 296.232V293.892H266.682V296.232H231.918Z" fill="#3F3635"/>
<path d="M0 223.999H82.639V222.842H0V223.999Z" fill="#C7C7C7"/>
<path d="M6.04102 255.368H7.19767V223.421H6.04102V255.368ZM19.4632 255.368H20.6199V223.421H19.4632V255.368ZM32.8854 255.368H34.042V223.421H32.8854V255.368ZM46.3079 255.368H47.4646V223.421H46.3079V255.368ZM59.7301 255.368H60.8867V223.421H59.7301V255.368ZM73.1527 255.368H74.3094V223.421H73.1527V255.368ZM83.1077 209.813C82.8691 209.481 82.5361 209.253 82.1846 209.123C81.8312 208.991 81.4581 208.945 81.0799 208.944C79.7063 208.952 78.1833 209.548 77.2484 209.953L77.4816 210.482L78.0415 210.628C78.275 209.728 78.3835 208.889 78.383 208.111C78.3853 206.379 77.8395 204.956 76.9991 203.901C76.1588 202.845 75.0387 202.154 73.8941 201.817C73.1899 201.61 72.4601 201.51 71.7327 201.51C69.1108 201.514 66.4835 202.789 65.218 205.098L65.7257 205.375L66.286 205.231C65.5956 202.532 64.3003 200.221 62.5255 198.572C60.7535 196.924 58.489 195.95 55.947 195.953C55.2074 195.953 54.4457 196.033 53.6663 196.202C52.0158 196.56 50.1741 197.612 48.7302 199.429C47.2861 201.247 46.26 203.832 46.2619 207.198C46.2619 207.613 46.2773 208.038 46.3093 208.478L46.8862 208.435L47.1524 207.922C45.5001 207.068 43.4999 206.429 41.5909 206.426C40.0751 206.424 38.5823 206.846 37.4812 207.96C36.3796 209.074 35.7385 210.811 35.7408 213.255C35.7408 213.417 35.7435 213.582 35.7489 213.75L36.3272 213.73L36.5965 213.219C33.6001 211.644 29.9011 210.677 26.6222 210.674C25.6137 210.674 24.6437 210.766 23.7446 210.967C21.1819 211.544 18.0702 213.172 15.5404 215.273C14.2772 216.326 13.163 217.499 12.351 218.736C11.5414 219.973 11.0263 221.286 11.0245 222.616C11.0245 222.889 11.0462 223.161 11.0922 223.431L12.2327 223.238C12.1981 223.032 12.1808 222.824 12.1812 222.616C12.1794 221.596 12.5887 220.483 13.3185 219.37C14.4091 217.701 16.2042 216.062 18.1687 214.759C20.1314 213.453 22.2681 212.48 23.9967 212.096C24.7964 211.917 25.6847 211.83 26.6222 211.83C29.6724 211.828 33.2405 212.755 36.0575 214.243L36.9382 214.707L36.9051 213.712C36.8998 213.556 36.8975 213.404 36.8975 213.255C36.8998 210.997 37.4776 209.609 38.3035 208.773C39.1299 207.938 40.2731 207.585 41.5909 207.583C43.2365 207.58 45.1026 208.16 46.6202 208.949L47.5382 209.425L47.4628 208.393C47.433 207.982 47.4185 207.584 47.4185 207.198C47.4204 204.065 48.3597 201.76 49.6361 200.149C50.9115 198.539 52.5439 197.625 53.9103 197.332C54.6128 197.181 55.2923 197.109 55.947 197.109C58.1935 197.111 60.1517 197.95 61.7385 199.42C63.3225 200.889 64.5221 203 65.1656 205.518L65.5301 206.944L66.2341 205.651C67.2339 203.795 69.4758 202.663 71.7327 202.667C72.3549 202.667 72.9756 202.752 73.5675 202.927C74.4987 203.201 75.4155 203.767 76.0932 204.622C76.7709 205.476 77.2245 206.618 77.2268 208.111C77.2263 208.781 77.1332 209.522 76.9218 210.337L76.6214 211.492L77.7148 211.011C78.5736 210.627 80.0493 210.093 81.0799 210.101C81.3595 210.101 81.5999 210.139 81.7784 210.206C81.9592 210.275 82.0767 210.362 82.1706 210.491L83.1077 209.813Z" fill="#C7C7C7"/>
</svg>
